# xmcd
#
# Track frame offsets: 
#        150
#        14918
#        35729
#        55681
#        73595
#        91330
#        112025
#        131292
#        145605
#        161482
#        177518
#        198644
#        214464
#        227509
#        242081
#
# Disc length: 3413 seconds
#
# Revision: 1
# Processed by: cddbd v1.5.2PL0 Copyright (c) Steve Scherf et al.
# Submitted via: ExactAudioCopyFreeDBPlugin 1.0
#
DISCID=db0d530f
DTITLE=Marie Osmond - Marie Osmond's Magic Of Christmas
DYEAR=2007
DGENRE=Holiday
TTITLE0=The Christmas Song
TTITLE1=When Christmas Comes This Year (ft Donny Osmond)
TTITLE2=Angels We Have Heard on High - Away In A Manger
TTITLE3=Season of Seasons (ft Stephen James Craig, son)
TTITLE4=Christmas Lullaby
TTITLE5=The Gift of Love (ft Paul Engemann)
TTITLE6=Hark, The Herald Angels Sing - O' Come All Ye Faithful
TTITLE7=The Locket (ft The Osmond Brothers)
TTITLE8=Christmas in the Country
TTITLE9=It's Christmas Once Again (ft Jimmy Osmond)
TTITLE10=O' Holy Night
TTITLE11=The Secret of Christmas
TTITLE12=The Lord's Prayer
TTITLE13=True Love
TTITLE14=Santa Claus is Comin' to Town (ft Merrill Osmond)
EXTD=
EXTT0=
EXTT1=
EXTT2=
EXTT3=
EXTT4=
EXTT5=
EXTT6=
EXTT7=
EXTT8=
EXTT9=
EXTT10=
EXTT11=
EXTT12=
EXTT13=
EXTT14=
PLAYORDER=
